<svg version="1.2" baseProfile="tiny" xmlns="http://www.w3.org/2000/svg" width="180" height="24" viewBox="0 0 180 24">
  <path fill="#011931" d="M5.1 5.8v2.5h9v4.9s-6 .3-9 .4v9.7H.2S0 13.3 0 8C0 5.2.4.5.4.5L15.3.4v4.9l-10.2.5zm25.2 18c-5.6 0-10.2-2.1-10.2-11.4 0-4.1.3-11.8.3-11.8h5.1s-.1 8.2-.1 11.8c0 4.9 2.1 6.3 5 6.3s5-1.3 5-6.3c0-3.6-.1-11.8-.1-11.8h5.1s.3 7.7.3 11.8c-.2 9.3-4.8 11.4-10.4 11.4zm20.4-.5h-4.8s-.1-8.8-.2-14.1c0-2.8.3-8.7.3-8.7h4.6l9.8 15.4L60 .6h4.8s.1 8.6.2 13.9c0 2.8-.3 8.8-.3 8.8h-5.1L50.3 9.2l.4 14.1zm31.3 0s-3.4-6.1-5.2-9.7l-1.5 1.7v8h-4.7s-.1-8.7-.2-14c0-2.7.2-8.8.2-8.8h4.6v8c2.1-2.6 5.6-7.3 6.1-8h5.9c-2.6 3.8-5.5 7.5-6.8 9.2 1.4 3 6.8 13.5 6.8 13.5H82zm27.4 0h-5v-9.1h-7.5l-.3 9h-4.7s-.1-8.8-.2-14c0-2.7.3-8.6.3-8.6h5V9h7.5l.3-8.4h4.8s.1 8.6.2 13.8c-.1 2.8-.4 8.9-.4 8.9zm19 0l-1.7-5.2h-6.1l-1.8 5.2h-5.2c0-1.2 7.5-22.8 8.2-22.8h3.7c.8 0 8.1 21.5 8.1 22.8h-5.2zM123.6 8c-.2.1-1.8 5.6-1.8 5.6h3.7L123.6 8zm22.7 15.8c-5.6 0-10.2-2.1-10.2-11.4 0-4.1.3-11.8.3-11.8h5.1s-.1 8.2-.1 11.8c0 4.9 2.1 6.3 5 6.3s5-1.3 5-6.3c0-3.6-.1-11.8-.1-11.8h5.1s.3 7.7.3 11.8c-.1 9.3-4.7 11.4-10.4 11.4zm24 0c-5.1 0-9.1-1.4-9.6-7.7l5.2-.2c.4 2.7 2.4 2.7 4.4 2.7 2.3 0 4.5-.1 4.5-2.2s-2.2-2.2-4.5-2.2c-5 0-8.9-1.6-8.9-7s3.8-6.9 8.9-6.9c4.6 0 8.3 1.3 8.8 7.1l-5.1.3c-.4-2.2-2.1-2.3-3.8-2.3-2 0-3.9 0-3.9 1.9s1.9 1.9 3.9 1.9c5.5 0 9.7 1.6 9.7 7.3.1 5.5-4 7.3-9.6 7.3z"/>
</svg>
