<?xml version="1.0" encoding="utf-8"?>
<!-- Generator: Adobe Illustrator 18.1.1, SVG Export Plug-In . SVG Version: 6.00 Build 0)  -->
<svg version="1.2" baseProfile="tiny" id="Layer_1" xmlns="http://www.w3.org/2000/svg" xmlns:xlink="http://www.w3.org/1999/xlink"
	 x="0px" y="0px" width="180px" height="24px" viewBox="0 0 180 24" xml:space="preserve">
<path fill="#011931" d="M5.1,5.8v2.5h9v4.9c0,0-6,0.3-9,0.4v9.7H0.2c0,0-0.2-10-0.2-15.3c0-2.8,0.4-7.5,0.4-7.5l14.9-0.1v4.9
	L5.1,5.8z M30.3,23.8c-5.6,0-10.2-2.1-10.2-11.4c0-4.1,0.3-11.8,0.3-11.8s5.1,0,5.1,0c0,0-0.1,8.2-0.1,11.8c0,4.9,2.1,6.3,5,6.3
	s5-1.3,5-6.3c0-3.6-0.1-11.8-0.1-11.8c0,0,5.1,0,5.1,0s0.3,7.7,0.3,11.8C40.5,21.7,35.9,23.8,30.3,23.8z M50.7,23.3h-4.8
	c0,0-0.1-8.8-0.2-14.1c0-2.8,0.3-8.7,0.3-8.7h4.6l9.8,15.4L60,0.6h4.8c0,0,0.1,8.6,0.2,13.9c0,2.8-0.3,8.8-0.3,8.8h-5.1L50.3,9.2
	L50.7,23.3z M82,23.3c0,0-3.4-6.1-5.2-9.7l-1.5,1.7v8h-4.7c0,0-0.1-8.7-0.2-14c0-2.7,0.2-8.8,0.2-8.8h4.6v8c2.1-2.6,5.6-7.3,6.1-8
	l5.9,0c-2.6,3.8-5.5,7.5-6.8,9.2c1.4,3,6.8,13.5,6.8,13.5H82z M109.4,23.3h-5v-9.1h-7.5l-0.3,9h-4.7c0,0-0.1-8.8-0.2-14
	c0-2.7,0.3-8.6,0.3-8.6h5V9h7.5l0.3-8.4h4.8c0,0,0.1,8.6,0.2,13.8C109.7,17.2,109.4,23.3,109.4,23.3z M128.4,23.3l-1.7-5.2h-6.1
	l-1.8,5.2h-5.2c0-1.2,7.5-22.8,8.2-22.8h3.7c0.8,0,8.1,21.5,8.1,22.8H128.4z M123.6,8L123.6,8c-0.2,0.1-1.8,5.6-1.8,5.6h3.7L123.6,8
	z M146.3,23.8c-5.6,0-10.2-2.1-10.2-11.4c0-4.1,0.3-11.8,0.3-11.8s5.1,0,5.1,0c0,0-0.1,8.2-0.1,11.8c0,4.9,2.1,6.3,5,6.3
	s5-1.3,5-6.3c0-3.6-0.1-11.8-0.1-11.8c0,0,5.1,0,5.1,0s0.3,7.7,0.3,11.8C156.6,21.7,152,23.8,146.3,23.8z M170.3,23.8
	c-5.1,0-9.1-1.4-9.6-7.7l5.2-0.2c0.4,2.7,2.4,2.7,4.4,2.7c2.3,0,4.5-0.1,4.5-2.2c0-2.1-2.2-2.2-4.5-2.2c-5,0-8.9-1.6-8.9-7
	c0-5.4,3.8-6.9,8.9-6.9c4.6,0,8.3,1.3,8.8,7.1l-5.1,0.3c-0.4-2.2-2.1-2.3-3.8-2.3c-2,0-3.9,0-3.9,1.9c0,1.9,1.9,1.9,3.9,1.9
	c5.5,0,9.7,1.6,9.7,7.3C180,22,175.9,23.8,170.3,23.8z"/>
</svg>
